ply
format ascii 1.0
element vertex 234
property float x
property float y
property float z
property uchar red
property uchar green
property uchar blue
element edge 117
property int vertex1
property int vertex2
end_header
-1.261868 38.196487 0.077926 95 95 95
0.901903 38.198238 0.077926 95 95 95
0.901903 38.198238 0.077926 95 95 95
0.905897 33.260498 0.077926 95 95 95
0.905897 33.260498 0.077926 95 95 95
-1.257874 33.258747 0.077926 95 95 95
-1.257874 33.258747 0.077926 95 95 95
-1.261868 38.196487 0.077926 95 95 95
-1.261868 38.196487 1.667926 95 95 95
0.901903 38.198238 1.667926 95 95 95
0.901903 38.198238 1.667926 95 95 95
0.905897 33.260498 1.667926 95 95 95
0.905897 33.260498 1.667926 95 95 95
-1.257874 33.258747 1.667926 95 95 95
-1.257874 33.258747 1.667926 95 95 95
-1.261868 38.196487 1.667926 95 95 95
-1.261868 38.196487 0.077926 95 95 95
-1.261868 38.196487 1.667926 95 95 95
0.901903 38.198238 0.077926 95 95 95
0.901903 38.198238 1.667926 95 95 95
0.905897 33.260498 0.077926 95 95 95
0.905897 33.260498 1.667926 95 95 95
-1.257874 33.258747 0.077926 95 95 95
-1.257874 33.258747 1.667926 95 95 95
-0.177985 35.728493 1.667926 255 0 0
-0.179983 38.197365 1.667926 255 0 0
2.253982 22.233879 -0.061846 95 95 95
4.460526 22.232841 -0.061846 95 95 95
4.460526 22.232841 -0.061846 95 95 95
4.458059 16.983120 -0.061846 95 95 95
4.458059 16.983120 -0.061846 95 95 95
2.251515 16.984158 -0.061846 95 95 95
2.251515 16.984158 -0.061846 95 95 95
2.253982 22.233879 -0.061846 95 95 95
2.253982 22.233879 1.558154 95 95 95
4.460526 22.232841 1.558154 95 95 95
4.460526 22.232841 1.558154 95 95 95
4.458059 16.983120 1.558154 95 95 95
4.458059 16.983120 1.558154 95 95 95
2.251515 16.984158 1.558154 95 95 95
2.251515 16.984158 1.558154 95 95 95
2.253982 22.233879 1.558154 95 95 95
2.253982 22.233879 -0.061846 95 95 95
2.253982 22.233879 1.558154 95 95 95
4.460526 22.232841 -0.061846 95 95 95
4.460526 22.232841 1.558154 95 95 95
4.458059 16.983120 -0.061846 95 95 95
4.458059 16.983120 1.558154 95 95 95
2.251515 16.984158 -0.061846 95 95 95
2.251515 16.984158 1.558154 95 95 95
3.356020 19.608500 1.558154 255 0 0
3.357254 22.233360 1.558154 255 0 0
9.705142 54.895729 -0.137303 95 95 95
11.750423 54.849400 -0.137303 95 95 95
11.750423 54.849400 -0.137303 95 95 95
11.637956 49.884567 -0.137303 95 95 95
11.637956 49.884567 -0.137303 95 95 95
9.592674 49.930897 -0.137303 95 95 95
9.592674 49.930897 -0.137303 95 95 95
9.705142 54.895729 -0.137303 95 95 95
9.705142 54.895729 1.662697 95 95 95
11.750423 54.849400 1.662697 95 95 95
11.750423 54.849400 1.662697 95 95 95
11.637956 49.884567 1.662697 95 95 95
11.637956 49.884567 1.662697 95 95 95
9.592674 49.930897 1.662697 95 95 95
9.592674 49.930897 1.662697 95 95 95
9.705142 54.895729 1.662697 95 95 95
9.705142 54.895729 -0.137303 95 95 95
9.705142 54.895729 1.662697 95 95 95
11.750423 54.849400 -0.137303 95 95 95
11.750423 54.849400 1.662697 95 95 95
11.637956 49.884567 -0.137303 95 95 95
11.637956 49.884567 1.662697 95 95 95
9.592674 49.930897 -0.137303 95 95 95
9.592674 49.930897 1.662697 95 95 95
10.671549 52.390148 1.662697 255 0 0
10.727783 54.872566 1.662697 255 0 0
4.942752 -40.124039 0.133518 95 95 95
8.134691 -40.120960 0.133518 95 95 95
8.134691 -40.120960 0.133518 95 95 95
8.146851 -52.730705 0.133518 95 95 95
8.146851 -52.730705 0.133518 95 95 95
4.954912 -52.733784 0.133518 95 95 95
4.954912 -52.733784 0.133518 95 95 95
4.942752 -40.124039 0.133518 95 95 95
4.942752 -40.124039 3.533518 95 95 95
8.134691 -40.120960 3.533518 95 95 95
8.134691 -40.120960 3.533518 95 95 95
8.146851 -52.730705 3.533518 95 95 95
8.146851 -52.730705 3.533518 95 95 95
4.954912 -52.733784 3.533518 95 95 95
4.954912 -52.733784 3.533518 95 95 95
4.942752 -40.124039 3.533518 95 95 95
4.942752 -40.124039 0.133518 95 95 95
4.942752 -40.124039 3.533518 95 95 95
8.134691 -40.120960 0.133518 95 95 95
8.134691 -40.120960 3.533518 95 95 95
8.146851 -52.730705 0.133518 95 95 95
8.146851 -52.730705 3.533518 95 95 95
4.954912 -52.733784 0.133518 95 95 95
4.954912 -52.733784 3.533518 95 95 95
6.544801 -46.427372 3.533518 255 0 0
6.538722 -40.122498 3.533518 255 0 0
-6.037013 -62.076435 0.038549 95 95 95
-8.269934 -62.086033 0.038549 95 95 95
-8.269934 -62.086033 0.038549 95 95 95
-8.292384 -56.862804 0.038549 95 95 95
-8.292384 -56.862804 0.038549 95 95 95
-6.059464 -56.853207 0.038549 95 95 95
-6.059464 -56.853207 0.038549 95 95 95
-6.037013 -62.076435 0.038549 95 95 95
-6.037013 -62.076435 1.588549 95 95 95
-8.269934 -62.086033 1.588549 95 95 95
-8.269934 -62.086033 1.588549 95 95 95
-8.292384 -56.862804 1.588549 95 95 95
-8.292384 -56.862804 1.588549 95 95 95
-6.059464 -56.853207 1.588549 95 95 95
-6.059464 -56.853207 1.588549 95 95 95
-6.037013 -62.076435 1.588549 95 95 95
-6.037013 -62.076435 0.038549 95 95 95
-6.037013 -62.076435 1.588549 95 95 95
-8.269934 -62.086033 0.038549 95 95 95
-8.269934 -62.086033 1.588549 95 95 95
-8.292384 -56.862804 0.038549 95 95 95
-8.292384 -56.862804 1.588549 95 95 95
-6.059464 -56.853207 0.038549 95 95 95
-6.059464 -56.853207 1.588549 95 95 95
-7.164699 -59.469620 1.588549 255 0 0
-7.153473 -62.081234 1.588549 255 0 0
-5.712022 -30.178801 0.018438 95 95 95
-8.317867 -30.177759 0.018438 95 95 95
-8.317867 -30.177759 0.018438 95 95 95
-8.315729 -24.821161 0.018438 95 95 95
-8.315729 -24.821161 0.018438 95 95 95
-5.709884 -24.822203 0.018438 95 95 95
-5.709884 -24.822203 0.018438 95 95 95
-5.712022 -30.178801 0.018438 95 95 95
-5.712022 -30.178801 2.068438 95 95 95
-8.317867 -30.177759 2.068438 95 95 95
-8.317867 -30.177759 2.068438 95 95 95
-8.315729 -24.821161 2.068438 95 95 95
-8.315729 -24.821161 2.068438 95 95 95
-5.709884 -24.822203 2.068438 95 95 95
-5.709884 -24.822203 2.068438 95 95 95
-5.712022 -30.178801 2.068438 95 95 95
-5.712022 -30.178801 0.018438 95 95 95
-5.712022 -30.178801 2.068438 95 95 95
-8.317867 -30.177759 0.018438 95 95 95
-8.317867 -30.177759 2.068438 95 95 95
-8.315729 -24.821161 0.018438 95 95 95
-8.315729 -24.821161 2.068438 95 95 95
-5.709884 -24.822203 0.018438 95 95 95
-5.709884 -24.822203 2.068438 95 95 95
-7.013876 -27.499981 2.068438 255 0 0
-7.014945 -30.178280 2.068438 255 0 0
-5.748078 -24.373976 0.014578 95 95 95
-8.609572 -24.387686 0.014578 95 95 95
-8.609572 -24.387686 0.014578 95 95 95
-8.642183 -17.581633 0.014578 95 95 95
-8.642183 -17.581633 0.014578 95 95 95
-5.780689 -17.567923 0.014578 95 95 95
-5.780689 -17.567923 0.014578 95 95 95
-5.748078 -24.373976 0.014578 95 95 95
-5.748078 -24.373976 3.104578 95 95 95
-8.609572 -24.387686 3.104578 95 95 95
-8.609572 -24.387686 3.104578 95 95 95
-8.642183 -17.581633 3.104578 95 95 95
-8.642183 -17.581633 3.104578 95 95 95
-5.780689 -17.567923 3.104578 95 95 95
-5.780689 -17.567923 3.104578 95 95 95
-5.748078 -24.373976 3.104578 95 95 95
-5.748078 -24.373976 0.014578 95 95 95
-5.748078 -24.373976 3.104578 95 95 95
-8.609572 -24.387686 0.014578 95 95 95
-8.609572 -24.387686 3.104578 95 95 95
-8.642183 -17.581633 0.014578 95 95 95
-8.642183 -17.581633 3.104578 95 95 95
-5.780689 -17.567923 0.014578 95 95 95
-5.780689 -17.567923 3.104578 95 95 95
-7.195131 -20.977804 3.104578 255 0 0
-7.178825 -24.380831 3.104578 255 0 0
-9.487670 -23.566057 -0.274095 95 95 95
-11.540118 -23.575571 -0.274095 95 95 95
-11.540118 -23.575571 -0.274095 95 95 95
-11.562335 -18.783010 -0.274095 95 95 95
-11.562335 -18.783010 -0.274095 95 95 95
-9.509887 -18.773497 -0.274095 95 95 95
-9.509887 -18.773497 -0.274095 95 95 95
-9.487670 -23.566057 -0.274095 95 95 95
-9.487670 -23.566057 1.335905 95 95 95
-11.540118 -23.575571 1.335905 95 95 95
-11.540118 -23.575571 1.335905 95 95 95
-11.562335 -18.783010 1.335905 95 95 95
-11.562335 -18.783010 1.335905 95 95 95
-9.509887 -18.773497 1.335905 95 95 95
-9.509887 -18.773497 1.335905 95 95 95
-9.487670 -23.566057 1.335905 95 95 95
-9.487670 -23.566057 -0.274095 95 95 95
-9.487670 -23.566057 1.335905 95 95 95
-11.540118 -23.575571 -0.274095 95 95 95
-11.540118 -23.575571 1.335905 95 95 95
-11.562335 -18.783010 -0.274095 95 95 95
-11.562335 -18.783010 1.335905 95 95 95
-9.509887 -18.773497 -0.274095 95 95 95
-9.509887 -18.773497 1.335905 95 95 95
-10.525002 -21.174534 1.335905 255 0 0
-10.513894 -23.570814 1.335905 255 0 0
-6.227801 4.594131 -0.035635 95 95 95
-8.363046 4.571979 -0.035635 95 95 95
-8.363046 4.571979 -0.035635 95 95 95
-8.410003 9.098188 -0.035635 95 95 95
-8.410003 9.098188 -0.035635 95 95 95
-6.274758 9.120340 -0.035635 95 95 95
-6.274758 9.120340 -0.035635 95 95 95
-6.227801 4.594131 -0.035635 95 95 95
-6.227801 4.594131 1.784365 95 95 95
-8.363046 4.571979 1.784365 95 95 95
-8.363046 4.571979 1.784365 95 95 95
-8.410003 9.098188 1.784365 95 95 95
-8.410003 9.098188 1.784365 95 95 95
-6.274758 9.120340 1.784365 95 95 95
-6.274758 9.120340 1.784365 95 95 95
-6.227801 4.594131 1.784365 95 95 95
-6.227801 4.594131 -0.035635 95 95 95
-6.227801 4.594131 1.784365 95 95 95
-8.363046 4.571979 -0.035635 95 95 95
-8.363046 4.571979 1.784365 95 95 95
-8.410003 9.098188 -0.035635 95 95 95
-8.410003 9.098188 1.784365 95 95 95
-6.274758 9.120340 -0.035635 95 95 95
-6.274758 9.120340 1.784365 95 95 95
-7.318902 6.846159 1.784365 255 0 0
-7.295424 4.583055 1.784365 255 0 0
0 1
2 3
4 5
6 7
8 9
10 11
12 13
14 15
16 17
18 19
20 21
22 23
24 25
26 27
28 29
30 31
32 33
34 35
36 37
38 39
40 41
42 43
44 45
46 47
48 49
50 51
52 53
54 55
56 57
58 59
60 61
62 63
64 65
66 67
68 69
70 71
72 73
74 75
76 77
78 79
80 81
82 83
84 85
86 87
88 89
90 91
92 93
94 95
96 97
98 99
100 101
102 103
104 105
106 107
108 109
110 111
112 113
114 115
116 117
118 119
120 121
122 123
124 125
126 127
128 129
130 131
132 133
134 135
136 137
138 139
140 141
142 143
144 145
146 147
148 149
150 151
152 153
154 155
156 157
158 159
160 161
162 163
164 165
166 167
168 169
170 171
172 173
174 175
176 177
178 179
180 181
182 183
184 185
186 187
188 189
190 191
192 193
194 195
196 197
198 199
200 201
202 203
204 205
206 207
208 209
210 211
212 213
214 215
216 217
218 219
220 221
222 223
224 225
226 227
228 229
230 231
232 233
